<svg width="375" height="812" viewBox="0 0 375 812" fill="none" xmlns="http://www.w3.org/2000/svg">
<rect width="375" height="812" fill="white"/>
<path d="M0 626.557C0 626.557 171.536 598.795 221.648 491.572C271.759 384.348 190.66 324.605 221.648 257.119C252.636 189.633 285 165.557 285 165.557" stroke="#72DB31" stroke-linecap="round" stroke-dasharray="14"/>
<path d="M323.36 125.074L277.042 140.66C275.091 141.317 273.694 142.988 273.397 145.022C273.101 147.055 273.963 149.041 275.649 150.204L288.963 159.389L303.823 146.471C304.507 145.877 305.54 145.946 306.131 146.625C306.721 147.304 306.646 148.337 305.962 148.932L291.101 161.85L298.344 176.312C299.261 178.143 301.108 179.274 303.163 179.263C305.222 179.252 307.069 178.098 307.989 176.261L329.87 132.563C330.866 130.573 330.583 128.3 329.132 126.63C327.68 124.961 325.469 124.364 323.36 125.074Z" fill="#72DB31"/>
</svg>
