<svg width="18" height="21" viewBox="0 0 18 21" fill="none" xmlns="http://www.w3.org/2000/svg">
<path fill-rule="evenodd" clip-rule="evenodd" d="M7 19C6.44772 19 6 19.4477 6 20C6 20.5523 6.44772 21 7 21H11C11.5523 21 12 20.5523 12 20C12 19.4477 11.5523 19 11 19H7Z" fill="white"/>
<path fill-rule="evenodd" clip-rule="evenodd" d="M3.00002 7C3.00002 3.68629 5.68631 1 9.00002 1V1C12.3137 1 15 3.68582 15 6.99953C15 7.65364 15 8.32682 15 9C15 11.4945 15.7778 13.989 16.3633 15.5133C16.6298 16.2073 16.1253 17 15.382 17H2.61805C1.87467 17 1.37017 16.2073 1.63671 15.5133C2.22221 13.989 3.00002 11.4945 3.00002 9V7Z" stroke="white" stroke-width="2"/>
</svg>
