<svg width="80" height="80" viewBox="0 0 80 80" fill="none" xmlns="http://www.w3.org/2000/svg">
<path d="M55 0H25C11.1929 0 0 11.1929 0 25V55C0 68.8071 11.1929 80 25 80H55C68.8071 80 80 68.8071 80 55V25C80 11.1929 68.8071 0 55 0Z" fill="white"/>
<rect opacity="0.01" x="11" y="68" width="59" height="59" transform="rotate(-90 11 68)" fill="white"/>
<path d="M36.9425 23.3414L23.5889 51.1096C23.0262 52.2794 23.2737 53.6011 24.2345 54.5586C25.1953 55.5162 26.6758 55.9167 28.0981 55.6037L39.3314 53.1321V41.0307C39.3314 40.4738 39.8546 40.0223 40.5 40.0223C41.1454 40.0223 41.6686 40.4738 41.6686 41.0307V53.1321L52.9018 55.6037C54.3242 55.9167 55.8047 55.5162 56.7655 54.5586C57.7281 53.5991 57.9726 52.2774 57.4111 51.1095L44.0575 23.3413C43.4495 22.077 42.0864 21.2917 40.5 21.2917C38.9136 21.2917 37.5504 22.077 36.9425 23.3414Z" fill="#63B8FC"/>
</svg>
